<svg width="26" height="24" viewBox="0 0 26 24" fill="none" xmlns="http://www.w3.org/2000/svg">
<path d="M16.4444 13.669C16.3105 13.562 16.2778 13.5225 16.2354 13.5043C15.0646 12.9938 13.8106 12.7978 12.563 12.699C11.1784 12.5886 9.78714 12.6743 8.41879 13.0004C7.13372 13.3067 5.92212 13.753 4.80196 14.4794C2.99926 15.6487 1.81053 17.2727 1.25045 19.3363C1.07573 19.982 0.874888 20.6803 1.10023 21.4066H1.43007C6.43321 21.4066 11.438 21.4066 16.4411 21.4066" stroke="black" stroke-width="1.2"/>
<path d="M11.2357 11.256L11.2965 11.2545C14.0506 11.1896 16.0855 9.12788 16.0681 6.40174L16.0681 6.40152C16.0521 3.74952 14.1919 1.74269 11.3859 1.60495L11.2357 11.256ZM11.2357 11.256C8.88814 11.2313 6.50559 8.95929 6.66958 6.27973L6.6696 6.27949C6.75085 4.9429 7.21315 3.89165 8.13611 2.96646C9.07666 2.02686 10.1645 1.54546 11.3857 1.60494L11.2357 11.256Z" stroke="black" stroke-width="1.2"/>
<path d="M25.3984 15.2505C25.2601 15.2506 25.1223 15.2508 24.9851 15.251C24.2122 15.252 23.4548 15.253 22.698 15.2484L22.6978 15.2484C22.5619 15.2476 22.4102 15.2426 22.2697 15.2149C22.1224 15.1859 21.9332 15.1217 21.775 14.9602C21.6181 14.8001 21.5573 14.6111 21.5298 14.4658C21.5032 14.3259 21.4983 14.1738 21.4975 14.0349L25.3984 15.2505ZM25.3984 15.2505V18.1428H22.1105H21.5265L21.5107 18.7266C21.4909 19.4583 21.493 20.2131 21.495 20.9488C21.4961 21.3372 21.4972 21.7203 21.495 22.0918C21.4473 22.0955 21.3964 22.099 21.3422 22.1023C21.039 22.1211 20.6694 22.1332 20.2771 22.1377C19.7125 22.1441 19.1161 22.1344 18.6169 22.1081V18.7906V18.1906H18.0169H14.7306V15.2567C14.7334 15.2567 14.7363 15.2566 14.7391 15.2566M25.3984 15.2505L14.7391 15.2566M14.7391 15.2566C14.739 15.2566 14.7388 15.2566 14.7387 15.2566L14.7299 14.6567L14.7395 15.2566C14.7394 15.2566 14.7393 15.2566 14.7391 15.2566ZM14.7391 15.2566C15.5256 15.2451 16.3037 15.237 17.0793 15.2565L17.0806 15.2565C17.3108 15.2618 17.5336 15.2631 17.7203 15.2369C17.9098 15.2102 18.1679 15.142 18.3639 14.9177C18.5499 14.705 18.591 14.4504 18.6061 14.2814C18.6207 14.117 18.6174 13.9171 18.6141 13.7157C18.6139 13.7039 18.6137 13.6921 18.6135 13.6803L14.7391 15.2566ZM21.4942 11.1584C21.4974 11.6344 21.4966 12.1113 21.4958 12.5911L21.4958 12.5924C21.495 13.0711 21.4942 13.5529 21.4974 14.0347L21.4942 11.1584ZM21.4942 11.1584C21.4941 11.1513 21.494 11.1444 21.494 11.1376C21.4903 11.1376 21.4867 11.1376 21.483 11.1375L21.4825 11.1375C20.5633 11.131 19.6419 11.1326 18.7189 11.1375L18.7188 11.1375C18.6797 11.1377 18.6446 11.1381 18.6128 11.1387C18.6124 11.1652 18.6121 11.1941 18.612 11.2258L18.612 11.2263C18.6116 11.2897 18.6112 11.3531 18.6108 11.4164C18.6062 12.1772 18.6016 12.9289 18.6135 13.6802L21.4942 11.1584Z" stroke="black" stroke-width="1.2"/>
</svg>
