<svg width="24" height="24" viewBox="0 0 24 24" fill="none" xmlns="http://www.w3.org/2000/svg">
<g clip-path="url(#clip0_2671_117)">
<path d="M2.17262 12.1509C2.22255 12.1097 2.25078 12.0897 2.27466 12.0652C3.00637 11.3111 3.73374 10.5514 4.46979 9.80178C5.08968 9.17245 5.8811 9.16799 6.49774 9.79733C7.56273 10.8833 8.61796 11.9794 9.67644 13.0721C9.71009 13.1077 9.73506 13.1534 9.74918 13.1735C9.90551 13.0275 10.0434 12.9084 10.1715 12.7792C11.1757 11.7611 12.1777 10.7408 13.1797 9.72047C13.9419 8.94411 14.7007 8.16551 15.4639 7.39137C16.0371 6.80993 16.8209 6.80659 17.3898 7.38803C18.7381 8.767 20.0821 10.1504 21.4283 11.5316C21.5629 11.6697 21.6726 11.8179 21.6595 12.0273C21.6443 12.2779 21.5238 12.4572 21.3013 12.5542C21.0842 12.6488 20.8725 12.6254 20.6999 12.4517C20.3937 12.1442 20.0952 11.829 19.7923 11.5171C18.7946 10.4924 17.7969 9.46762 16.7981 8.44286C16.7276 8.37046 16.6559 8.30029 16.581 8.23457C16.4475 8.11762 16.4084 8.11427 16.2825 8.23791C15.9882 8.52529 15.6973 8.8149 15.4085 9.10896C13.7964 10.7463 12.1842 12.3848 10.5732 14.0245C9.81431 14.7975 9.05981 15.5738 8.29987 16.3469C8.22822 16.4204 8.14137 16.4872 8.05018 16.5307C7.78963 16.6554 7.52799 16.583 7.36298 16.3558C7.19905 16.1297 7.20231 15.8479 7.38686 15.6273C7.50411 15.487 7.63547 15.3589 7.76249 15.2285C8.11749 14.8665 8.47466 14.5056 8.82965 14.1436C8.87091 14.1013 8.90782 14.0568 8.9697 13.9877C8.87634 13.8997 8.78406 13.8195 8.69829 13.7326C7.731 12.7424 6.76806 11.7466 5.79642 10.7608C5.45011 10.41 5.51959 10.4055 5.17436 10.7575C4.21901 11.7277 3.27561 12.7101 2.3246 13.6825C2.21496 13.795 2.16502 13.9086 2.1661 14.0712C2.1737 14.969 2.1661 15.8668 2.17044 16.7657C2.17262 17.3794 2.58515 17.7971 3.20396 17.8027C4.17776 17.8105 5.15265 17.8072 6.12754 17.8072C8.47357 17.8072 10.8196 17.8071 13.1645 17.8016C13.4273 17.8016 13.6476 17.8651 13.7866 18.109C14.0124 18.5044 13.7215 19.0034 13.2666 19.0046C10.6904 19.0046 8.11531 19.0046 5.53913 19.0046C4.75423 19.0046 3.96932 19.0046 3.18442 19.0046C2.1509 19.0046 1.24875 18.256 1.04248 17.219C1.011 17.062 1.0034 16.8971 1.00449 16.7356C1.00557 13.7683 1.011 10.8009 1.01317 7.83358C1.01317 6.30201 1.01751 4.76933 1.00123 3.23776C0.988202 2.06597 1.95223 0.998887 3.17247 1C9.38441 1.00891 15.5963 1.00557 21.8083 1.00334C22.9851 1.00334 23.8731 1.87773 23.9904 3.00496C24.0088 3.17873 23.9849 3.35583 23.9849 3.53182C23.9849 6.71191 23.9849 9.89089 23.9839 13.071C23.9839 13.2236 23.998 13.3773 23.9773 13.5277C23.9383 13.8128 23.694 14.0233 23.4258 14.0256C23.1447 14.0278 22.8874 13.8139 22.8429 13.5277C22.8255 13.4196 22.8288 13.3071 22.8288 13.1957C22.8288 9.88644 22.8255 6.57602 22.832 3.26672C22.8331 2.58169 22.299 2.19407 21.7703 2.19518C15.6484 2.20298 9.52771 2.19741 3.40588 2.19852C3.2311 2.19852 3.0498 2.19852 2.8837 2.24642C2.41145 2.38342 2.16285 2.74877 2.16393 3.26004C2.1661 5.59805 2.16936 7.93494 2.17044 10.2729C2.17044 10.8566 2.1661 11.4392 2.16393 12.0228C2.16393 12.054 2.16827 12.0852 2.1737 12.1509H2.17262Z" fill="black"/>
<path d="M19.5239 13.8077C17.0813 13.7965 15.0588 15.8438 15.0327 18.3767C15.074 21.1937 17.2159 22.9347 19.4186 22.9982C21.7104 23.065 23.9967 21.1703 24 18.3857C24.0032 16.1323 22.2412 13.8199 19.5239 13.8077ZM19.4783 21.7997C17.5883 21.7774 16.1846 20.2046 16.2008 18.3656C16.2171 16.4464 17.712 14.9683 19.5836 15.0073C21.3923 15.0441 22.8655 16.5845 22.8264 18.3823C22.8535 20.2603 21.3869 21.8219 19.4783 21.7997Z" fill="black"/>
<path d="M9.001 3.40139C7.69174 3.40807 6.8569 4.50635 6.84822 5.59682C6.83845 6.78866 7.83722 7.80562 8.99558 7.80562C10.1409 7.80451 11.1375 6.79312 11.1419 5.62467C11.1473 4.4139 10.1713 3.39582 9.001 3.40139ZM8.97169 6.60933C8.46037 6.61378 8.02503 6.16267 8.02177 5.62356C8.01743 5.02875 8.4202 4.60882 8.99775 4.60437C9.52102 4.5988 9.96612 5.04434 9.97589 5.58012C9.98566 6.14373 9.5373 6.60376 8.97169 6.60933Z" fill="black"/>
<path d="M21.4977 18.816C21.2914 19.041 20.9331 19.0621 20.703 18.8527C20.5412 18.7057 20.3925 18.5431 20.2383 18.3871C20.2004 18.3504 20.1613 18.3147 20.1005 18.2568C20.1005 18.8238 20.0994 19.3551 20.1005 19.8864C20.1016 20.0958 20.0755 20.2919 19.9105 20.4422C19.7346 20.6026 19.537 20.6416 19.3199 20.5625C19.0952 20.4801 18.9519 20.3119 18.9432 20.0691C18.928 19.6024 18.9345 19.1345 18.9323 18.6667V18.2312C18.865 18.298 18.8216 18.3404 18.7793 18.3827C18.6338 18.5342 18.4938 18.6923 18.3407 18.8349C18.1496 19.0131 17.926 19.0577 17.6904 18.9363C17.4613 18.8182 17.368 18.6121 17.3734 18.3548C17.3766 18.1944 17.4657 18.0775 17.5688 17.9717C17.8608 17.6687 18.1561 17.3702 18.4503 17.0694C18.6349 16.879 18.8173 16.6874 19.0018 16.4969C19.0496 16.4479 19.0984 16.3989 19.1506 16.3554C19.4035 16.1405 19.6803 16.136 19.9181 16.3699C20.3122 16.7576 20.6943 17.1574 21.0808 17.5529C21.2241 17.6999 21.3674 17.848 21.5053 18.0006C21.717 18.2334 21.7115 18.5843 21.4977 18.816Z" fill="black"/>
</g>
<defs>
<clipPath id="clip0_2671_117">
<rect width="23" height="22" fill="white" transform="translate(1 1)"/>
</clipPath>
</defs>
</svg>
