<svg width="24" height="24" viewBox="0 0 24 24" fill="none" xmlns="http://www.w3.org/2000/svg">
<path d="M8.83714 13.3338C5.32241 13.3338 2.54871 10.6866 2.54871 7.4629C2.54871 7.43778 2.56138 7.39246 2.61064 7.34623C2.65951 7.30037 2.72266 7.27539 2.78127 7.27539C2.83989 7.27539 2.90304 7.30037 2.9519 7.34623C3.00116 7.39246 3.01384 7.43778 3.01384 7.4629C3.01384 10.5185 5.66111 12.9588 8.83714 12.9588C12.0132 12.9588 14.6604 10.5185 14.6604 7.4629C14.6604 7.43778 14.6731 7.39246 14.7224 7.34623C14.7712 7.30037 14.8344 7.27539 14.893 7.27539C14.9516 7.27539 15.0148 7.30037 15.0636 7.34623C15.1129 7.39246 15.1256 7.43778 15.1256 7.4629C15.1256 10.643 12.3495 13.3338 8.83714 13.3338Z" stroke="black"/>
<path d="M14.1606 22.4999C11.0854 22.4999 8.60474 20.1276 8.60474 17.3164C8.60474 17.2913 8.61741 17.246 8.66667 17.1997C8.71554 17.1539 8.77869 17.1289 8.8373 17.1289C8.89592 17.1289 8.95907 17.1539 9.00793 17.1997C9.05719 17.246 9.06987 17.2913 9.06987 17.3164C9.06987 20.0054 11.3753 22.1248 14.1606 22.1248C16.9459 22.1248 19.2513 20.0054 19.2513 17.3164C19.2513 17.2913 19.264 17.246 19.3133 17.1997C19.3621 17.1539 19.4253 17.1289 19.4839 17.1289C19.5425 17.1289 19.6057 17.1539 19.6545 17.1997C19.7038 17.246 19.7165 17.2913 19.7165 17.3164C19.7165 20.1301 17.2819 22.4999 14.1606 22.4999Z" stroke="black"/>
<path d="M19.5327 16.9098C17.8738 16.9098 16.5652 15.6376 16.5652 14.1556C16.5652 12.6736 17.8738 11.4014 19.5327 11.4014C21.1916 11.4014 22.5001 12.6736 22.5001 14.1556C22.5001 15.6376 21.1916 16.9098 19.5327 16.9098ZM19.5327 11.7764C18.2206 11.7764 17.0303 12.7882 17.0303 14.1556C17.0303 15.5153 18.1636 16.5348 19.5327 16.5348C20.9017 16.5348 22.035 15.5153 22.035 14.1556C22.035 12.7882 20.8447 11.7764 19.5327 11.7764Z" stroke="black"/>
<path d="M2.78139 7.65012C2.72278 7.65012 2.65963 7.62514 2.61076 7.57928C2.56151 7.53306 2.54883 7.48773 2.54883 7.46261V1.68751C2.54883 1.66239 2.56151 1.61707 2.61076 1.57084C2.65963 1.52498 2.72278 1.5 2.78139 1.5C2.84001 1.5 2.90316 1.52498 2.95202 1.57084C3.00128 1.61707 3.01396 1.66239 3.01396 1.68751V7.46261C3.01396 7.48773 3.00128 7.53306 2.95202 7.57928C2.90316 7.62514 2.84001 7.65012 2.78139 7.65012Z" stroke="black"/>
<path d="M14.8931 7.65012C14.8345 7.65012 14.7713 7.62514 14.7225 7.57928C14.6732 7.53306 14.6605 7.48773 14.6605 7.46261V1.68751C14.6605 1.66239 14.6732 1.61707 14.7225 1.57084C14.7713 1.52498 14.8345 1.5 14.8931 1.5C14.9517 1.5 15.0149 1.52498 15.0637 1.57084C15.113 1.61707 15.1257 1.66239 15.1257 1.68751V7.46261C15.1257 7.48773 15.113 7.53306 15.0637 7.57928C15.0149 7.62514 14.9517 7.65012 14.8931 7.65012Z" stroke="black"/>
<path d="M8.8373 18.2841C8.77869 18.2841 8.71554 18.2591 8.66667 18.2133C8.61741 18.167 8.60474 18.1217 8.60474 18.0966V13.1465C8.60474 13.1214 8.61741 13.0761 8.66667 13.0298C8.71554 12.984 8.77869 12.959 8.8373 12.959C8.89592 12.959 8.95907 12.984 9.00793 13.0298C9.05719 13.0761 9.06987 13.1214 9.06987 13.1465V18.0966C9.06987 18.1217 9.05719 18.167 9.00793 18.2133C8.95907 18.2591 8.89592 18.2841 8.8373 18.2841Z" stroke="black"/>
<path d="M5.22328 1.87502H2.73256C2.67395 1.87502 2.6108 1.85004 2.56193 1.80418C2.51268 1.75796 2.5 1.71263 2.5 1.68751C2.5 1.66239 2.51268 1.61707 2.56193 1.57084C2.6108 1.52498 2.67395 1.5 2.73256 1.5H5.22328C5.2819 1.5 5.34505 1.52498 5.39391 1.57084C5.44317 1.61707 5.45585 1.66239 5.45585 1.68751C5.45585 1.7359 5.43706 1.77958 5.40385 1.81223C5.37275 1.84281 5.31702 1.87502 5.22328 1.87502Z" stroke="black"/>
<path d="M14.8931 1.87502H12.4024C12.3437 1.87502 12.2806 1.85004 12.2317 1.80418C12.1825 1.75796 12.1698 1.71263 12.1698 1.68751C12.1698 1.66401 12.1808 1.62217 12.2297 1.57833C12.2776 1.53527 12.3538 1.5 12.4512 1.5H14.9419C15.0005 1.5 15.0637 1.52498 15.1126 1.57084C15.1618 1.61707 15.1745 1.66239 15.1745 1.68751C15.1745 1.71101 15.1634 1.75286 15.1146 1.7967C15.0666 1.83975 14.9905 1.87502 14.8931 1.87502Z" stroke="black"/>
</svg>
